<svg width="31" height="31" viewBox="0 0 31 31" fill="none" xmlns="http://www.w3.org/2000/svg">
<path d="M27.5774 14.7393V10.7826C27.5774 9.60362 26.4945 8.73425 25.326 8.73425H19.3472C18.1787 8.73425 17.31 9.60362 17.31 10.7826V11.134V14.7393C15.4561 16.1009 14.2409 18.1614 13.9502 20.5188C13.9511 20.5223 13.9244 20.5259 13.9254 20.5293C13.8808 20.8758 13.8431 21.2283 13.8431 21.5863C13.8431 26.3185 17.6458 30.1546 22.3357 30.1546C27.0257 30.1546 30.8958 26.3184 30.8958 21.5863C30.8958 18.7879 29.5738 16.3029 27.5774 14.7393ZM22.3366 10.8383C22.9757 10.8383 23.4938 11.3611 23.4938 12.006C23.4938 12.6509 22.9757 13.1736 22.3366 13.1736C21.6974 13.1736 21.1794 12.6509 21.1794 12.006C21.1794 11.3611 21.6974 10.8383 22.3366 10.8383ZM25.6441 24.9238C24.7607 25.8152 23.5859 26.3061 22.3366 26.3061C21.0871 26.3061 19.9125 25.8152 19.0289 24.9238C18.4331 24.3227 18.0187 23.5875 17.8114 22.7859C17.7633 22.6 17.7269 22.4105 17.7013 22.2184C17.6987 22.199 17.6966 22.1796 17.6941 22.1602C17.6853 22.0865 17.6783 22.0125 17.6729 21.9381C17.6712 21.9143 17.669 21.8905 17.6678 21.8666C17.6623 21.7737 17.6588 21.6803 17.6588 21.5863C17.6588 21.4976 17.6618 21.4094 17.6666 21.3216C17.6679 21.2991 17.67 21.2768 17.6715 21.2544C17.6762 21.1866 17.6819 21.1191 17.6894 21.0519C17.6919 21.0305 17.6946 21.0092 17.6973 20.9879C17.7063 20.9162 17.7167 20.845 17.7288 20.7742C17.7314 20.7596 17.7336 20.745 17.7363 20.7303C17.7519 20.645 17.7691 20.5601 17.7891 20.4759C17.988 19.6397 18.411 18.8722 19.0289 18.2487C19.9123 17.3573 21.0871 16.8664 22.3366 16.8664C23.5861 16.8664 24.7607 17.3573 25.6441 18.2487C26.5275 19.1401 27.0141 20.3254 27.0141 21.586C27.0142 22.8471 26.5277 24.0324 25.6441 24.9238Z" fill="#FAFAFA"/>
<path d="M12.8171 24.9263C12.3173 25.4712 11.6933 25.8925 10.9817 26.1529C9.80705 26.5829 8.53688 26.5255 7.40518 25.9913C6.27334 25.4572 5.41544 24.5105 4.98949 23.3252C4.56339 22.14 4.62029 20.8584 5.14963 19.7165C5.67897 18.5745 6.6173 17.7089 7.79192 17.2791C8.96655 16.8491 10.2367 16.9065 11.3684 17.4407C11.8962 17.6897 12.3633 18.0294 12.7561 18.4402C12.9181 17.9359 13.1636 17.4437 13.4019 16.9724C13.9709 15.8468 14.886 14.8261 15.7416 13.9832V10.7827C15.7416 10.6517 15.7001 10.5222 15.7132 10.3947L12.1353 8.71787C11.0769 8.21844 9.80548 8.67931 9.31036 9.74725L7.64319 13.3314C5.12368 13.8686 2.87269 15.5511 1.69764 18.0863C-0.289105 22.3728 1.54277 27.4728 5.79106 29.4775C8.8576 30.9244 12.3428 30.3624 14.7924 28.3261C14.0652 27.4989 13.4796 26.5668 13.0514 25.5454C12.9657 25.3413 12.8888 25.1344 12.8171 24.9263ZM13.2198 11.3989C13.859 11.3989 14.377 11.9217 14.377 12.5666C14.377 13.2115 13.859 13.7342 13.2198 13.7342C12.5807 13.7342 12.0626 13.2115 12.0626 12.5666C12.0626 11.9217 12.5807 11.3989 13.2198 11.3989Z" fill="#FAFAFA"/>
<path d="M15.0174 9.17254C16.6216 9.17254 17.9265 7.85567 17.9265 6.23722C17.9265 6.19808 17.9223 6.15995 17.9207 6.1211C18.061 6.14226 18.2036 6.15664 18.3496 6.15664C18.7871 6.15664 19.2008 6.05592 19.5735 5.88052C19.9554 7.05264 21.0487 7.90201 22.3364 7.90201C23.9405 7.90201 25.2455 6.58514 25.2455 4.96669C25.2455 3.34809 23.9404 2.03137 22.3364 2.03137C21.8989 2.03137 21.4852 2.1321 21.1126 2.3075C20.7307 1.13538 19.6373 0.286011 18.3496 0.286011C16.7455 0.286011 15.4405 1.60288 15.4405 3.22133C15.4405 3.26047 15.4448 3.2986 15.4464 3.33744C15.3061 3.31629 15.1635 3.30191 15.0174 3.30191C13.4133 3.30191 12.1083 4.61877 12.1083 6.23722C12.1083 7.85567 13.4133 9.17254 15.0174 9.17254ZM22.3365 3.63227C23.0668 3.63227 23.6589 4.2297 23.6589 4.96655C23.6589 5.7034 23.0668 6.30082 22.3365 6.30082C21.6063 6.30082 21.0142 5.7034 21.0142 4.96655C21.0142 4.2297 21.6061 3.63227 22.3365 3.63227ZM18.3498 1.88691C19.0801 1.88691 19.6721 2.48433 19.6721 3.22118C19.6721 3.95803 19.0801 4.55546 18.3498 4.55546C17.6195 4.55546 17.0274 3.95803 17.0274 3.22118C17.0274 2.48433 17.6195 1.88691 18.3498 1.88691ZM15.0174 4.90295C15.7477 4.90295 16.3398 5.50037 16.3398 6.23722C16.3398 6.97407 15.7477 7.5715 15.0174 7.5715C14.2872 7.5715 13.6951 6.97407 13.6951 6.23722C13.6951 5.50023 14.2872 4.90295 15.0174 4.90295Z" fill="#FAFAFA"/>
</svg>
