<svg width="409" height="283" viewBox="0 0 409 283" fill="none" xmlns="http://www.w3.org/2000/svg">
<rect y="263" width="58" height="20" fill="#C4C4C4"/>
<g filter="url(#filter0_dddddd)">
<path d="M33.9218 276.879L36.0604 267.617H37.14L34.3639 278.846H33.49L30.719 267.617H31.7935L33.9218 276.879Z" fill="white"/>
<path d="M39.1398 277.635H42.687V278.846H38.1476V267.617H39.1398V277.635Z" fill="white"/>
<path d="M49 277.373C48.7464 277.918 48.3917 278.326 47.9358 278.599C47.4834 278.866 46.9556 279 46.3524 279C45.7424 279 45.2009 278.787 44.7279 278.36C44.255 277.928 43.8883 277.316 43.6278 276.524C43.3707 275.733 43.2388 274.815 43.2319 273.771V272.792C43.2319 271.1 43.4941 269.789 44.0185 268.859C44.5463 267.928 45.2866 267.463 46.2393 267.463C47.0208 267.463 47.6497 267.763 48.1261 268.365C48.6024 268.961 48.8938 269.81 49 270.91H48.013C47.8279 269.424 47.2384 268.681 46.2445 268.681C45.583 268.681 45.0809 269.031 44.7382 269.73C44.3989 270.424 44.2276 271.432 44.2241 272.753V273.671C44.2241 274.931 44.4161 275.933 44.7999 276.679C45.1838 277.419 45.703 277.789 46.3576 277.789C46.7277 277.789 47.0516 277.728 47.3292 277.604C47.6068 277.481 47.8364 277.272 48.0181 276.979V274.458H46.2856V273.254H49V277.373Z" fill="white"/>
<path d="M6.98705 274.45V278.846H6V267.617H8.76065C9.57976 267.617 10.2207 267.931 10.6833 268.558C11.1494 269.185 11.3825 270.015 11.3825 271.049C11.3825 272.139 11.1546 272.979 10.6988 273.571C10.2464 274.157 9.5969 274.45 8.75037 274.45H6.98705ZM6.98705 273.239H8.76065C9.28845 273.239 9.69286 273.054 9.9739 272.684C10.2549 272.308 10.3954 271.769 10.3954 271.064C10.3954 270.396 10.2549 269.861 9.9739 269.46C9.69286 269.059 9.3073 268.851 8.8172 268.835H6.98705V273.239Z" fill="white"/>
<path d="M15.8653 278.846C15.8105 278.681 15.766 278.388 15.7317 277.967C15.2896 278.656 14.7618 279 14.1483 279C13.5999 279 13.1492 278.769 12.7962 278.306C12.4467 277.838 12.2719 277.247 12.2719 276.532C12.2719 275.663 12.4912 274.99 12.9299 274.512C13.372 274.028 13.9923 273.787 14.7909 273.787H15.7163V273.131C15.7163 272.632 15.6169 272.237 15.4181 271.943C15.2193 271.645 14.9263 271.496 14.539 271.496C14.1997 271.496 13.9152 271.625 13.6856 271.882C13.456 272.139 13.3412 272.45 13.3412 272.815H12.385C12.385 272.398 12.4826 271.997 12.678 271.612C12.8768 271.221 13.1441 270.913 13.48 270.686C13.8193 270.46 14.1911 270.347 14.5955 270.347C15.2364 270.347 15.7385 270.589 16.1018 271.072C16.4651 271.55 16.6536 272.211 16.6673 273.054V276.895C16.6673 277.661 16.7324 278.27 16.8627 278.722V278.846H15.8653ZM14.2871 277.758C14.5853 277.758 14.868 277.643 15.1353 277.411C15.4027 277.18 15.5963 276.879 15.7163 276.509V274.797H14.9708C13.8056 274.797 13.2229 275.308 13.2229 276.332C13.2229 276.779 13.3223 277.129 13.5211 277.38C13.7199 277.632 13.9752 277.758 14.2871 277.758Z" fill="white"/>
<path d="M19.9112 276.91L21.289 270.501H22.2606L20.2659 278.846H19.5411L17.5258 270.501H18.4975L19.9112 276.91Z" fill="white"/>
<path d="M25.4119 279C24.658 279 24.0445 278.63 23.5715 277.889C23.0986 277.144 22.8621 276.149 22.8621 274.905V274.643C22.8621 273.815 22.9666 273.077 23.1757 272.429C23.3882 271.776 23.6829 271.267 24.0599 270.902C24.4403 270.532 24.8516 270.347 25.2937 270.347C26.0169 270.347 26.5789 270.704 26.9799 271.419C27.3809 272.134 27.5814 273.157 27.5814 274.488V275.082H23.8131C23.8268 275.905 23.9862 276.571 24.2912 277.08C24.5997 277.584 24.9904 277.835 25.4634 277.835C25.7992 277.835 26.0837 277.733 26.3167 277.527C26.5498 277.321 26.7537 277.049 26.9285 276.71L27.5094 277.388C27.0433 278.463 26.3442 279 25.4119 279ZM25.2937 271.519C24.9099 271.519 24.5877 271.73 24.3272 272.152C24.0668 272.568 23.9057 273.154 23.844 273.91H26.6303V273.802C26.6029 273.077 26.4727 272.517 26.2396 272.121C26.0066 271.72 25.6913 271.519 25.2937 271.519Z" fill="white"/>
<path d="M29.72 278.846H28.7689V267H29.72V278.846Z" fill="white"/>
</g>
<defs>
<filter id="filter0_dddddd" x="6" y="0.194214" width="402.545" height="278.806" filterUnits="userSpaceOnUse" color-interpolation-filters="sRGB">
<feFlood flood-opacity="0" result="BackgroundImageFix"/>
<feColorMatrix in="SourceAlpha" type="matrix" values="0 0 0 0 0 0 0 0 0 0 0 0 0 0 0 0 0 0 127 0"/>
<feOffset dx="4.50705" dy="-3.11166"/>
<feGaussianBlur stdDeviation="1.18056"/>
<feColorMatrix type="matrix" values="0 0 0 0 0.4 0 0 0 0 0.4 0 0 0 0 0.4 0 0 0 0.98 0"/>
<feBlend mode="normal" in2="BackgroundImageFix" result="effect1_dropShadow"/>
<feColorMatrix in="SourceAlpha" type="matrix" values="0 0 0 0 0 0 0 0 0 0 0 0 0 0 0 0 0 0 127 0"/>
<feOffset dx="21.0791" dy="-14.553"/>
<feGaussianBlur stdDeviation="2.44444"/>
<feColorMatrix type="matrix" values="0 0 0 0 0.4 0 0 0 0 0.4 0 0 0 0 0.4 0 0 0 0.657303 0"/>
<feBlend mode="normal" in2="effect1_dropShadow" result="effect2_dropShadow"/>
<feColorMatrix in="SourceAlpha" type="matrix" values="0 0 0 0 0 0 0 0 0 0 0 0 0 0 0 0 0 0 127 0"/>
<feOffset dx="54.2926" dy="-37.4836"/>
<feGaussianBlur stdDeviation="4.875"/>
<feColorMatrix type="matrix" values="0 0 0 0 0.4 0 0 0 0 0.4 0 0 0 0 0.4 0 0 0 0.480926 0"/>
<feBlend mode="normal" in2="effect2_dropShadow" result="effect3_dropShadow"/>
<feColorMatrix in="SourceAlpha" type="matrix" values="0 0 0 0 0 0 0 0 0 0 0 0 0 0 0 0 0 0 127 0"/>
<feOffset dx="108.724" dy="-75.0628"/>
<feGaussianBlur stdDeviation="9.55556"/>
<feColorMatrix type="matrix" values="0 0 0 0 0.4 0 0 0 0 0.4 0 0 0 0 0.4 0 0 0 0.388938 0"/>
<feBlend mode="normal" in2="effect3_dropShadow" result="effect4_dropShadow"/>
<feColorMatrix in="SourceAlpha" type="matrix" values="0 0 0 0 0 0 0 0 0 0 0 0 0 0 0 0 0 0 127 0"/>
<feOffset dx="188.949" dy="-130.45"/>
<feGaussianBlur stdDeviation="17.5694"/>
<feColorMatrix type="matrix" values="0 0 0 0 0.4 0 0 0 0 0.4 0 0 0 0 0.4 0 0 0 0.319407 0"/>
<feBlend mode="normal" in2="effect4_dropShadow" result="effect5_dropShadow"/>
<feColorMatrix in="SourceAlpha" type="matrix" values="0 0 0 0 0 0 0 0 0 0 0 0 0 0 0 0 0 0 127 0"/>
<feOffset dx="299.545" dy="-206.806"/>
<feGaussianBlur stdDeviation="30"/>
<feColorMatrix type="matrix" values="0 0 0 0 0.4 0 0 0 0 0.4 0 0 0 0 0.4 0 0 0 0.210405 0"/>
<feBlend mode="normal" in2="effect5_dropShadow" result="effect6_dropShadow"/>
<feBlend mode="normal" in="SourceGraphic" in2="effect6_dropShadow" result="shape"/>
</filter>
</defs>
</svg>
